<svg width="10" height="16" viewBox="0 0 10 16" fill="none" xmlns="http://www.w3.org/2000/svg">
<path fill-rule="evenodd" clip-rule="evenodd" d="M5.68731 0.053211C4.14163 0.232184 3.01009 0.894202 2.48532 1.92661C2.20826 2.47167 2.16196 2.7455 2.1332 4.00844L2.1067 5.17288L1.06623 5.18275L0.0258099 5.19266L0.0129053 6.59633L0 8H1.05958H2.11916V12V16H4.36027H6.60139V12V8H8.10274H9.60409L9.62812 7.91743C9.65142 7.83732 10 5.30785 10 5.21872C10 5.18484 9.59655 5.17431 8.29769 5.17431H6.59543L6.6107 4.21101C6.62582 3.26121 6.62774 3.24543 6.74915 3.08565C6.82767 2.98231 6.94371 2.89585 7.06931 2.84712C7.25254 2.776 7.36012 2.76987 8.60854 2.75982L9.95074 2.74899V1.3745V0L8.01748 0.00363299C6.73674 0.00601831 5.95023 0.022789 5.68731 0.053211Z" fill="white"/>
</svg>
