<svg width="216" height="99" viewBox="0 0 216 99" fill="none" xmlns="http://www.w3.org/2000/svg">
<path fill-rule="evenodd" clip-rule="evenodd" d="M115.92 5.56907C114.599 11.0839 114.576 11.1381 113.599 11.1381C112.635 11.1381 112.587 11.2395 111.494 15.62C110.879 18.0847 110.375 20.1866 110.375 20.2908C110.375 20.3947 110.778 20.4798 111.271 20.4798C111.763 20.4798 112.166 20.5272 112.166 20.5854C112.166 20.6436 110.287 28.2021 107.991 37.3825C103.232 56.4057 102.916 58.6225 104.737 60.1955C106.57 61.7793 110.131 62.1954 114.314 61.3151L116.283 60.9005L117.402 56.7686L118.521 52.6367L117.649 52.521C117.17 52.4574 116.71 52.2149 116.628 51.9821C116.545 51.7492 118.206 44.6065 120.319 36.1091L124.16 20.6595L125.285 20.5499L126.409 20.4403L127.522 15.9782C128.135 13.5242 128.636 11.4313 128.636 11.3271C128.636 11.2233 128.142 11.1381 127.538 11.1381C126.659 11.1381 126.477 11.0124 126.626 10.5094C126.729 10.1637 127.308 7.94042 127.912 5.56907C128.517 3.19772 129.099 0.974767 129.206 0.628766C129.386 0.0470676 128.946 0 123.327 0H117.253L115.92 5.56907ZM7.11587 32.5733C3.44336 47.363 0.339789 59.838 0.219126 60.2965L0 61.1293L10.541 61.0151L21.0819 60.9005L23.8088 59.5474C28.1967 57.3704 31.0307 53.5285 33.1486 46.888C36.0921 37.6573 35.7398 32.8733 31.9845 31.0761L30.726 30.474L32.5359 29.6106C36.1175 27.9025 38.0477 25.0324 39.4667 19.3067C40.3325 15.8115 40.5079 11.3289 39.8301 10.0121C39.0309 8.46032 37.9529 7.561 35.9317 6.76049C34.0748 6.02466 33.2119 5.95783 23.8629 5.82561L13.7935 5.68333L7.11587 32.5733ZM146.18 8.63565C141.721 9.16741 137.74 11.2811 134.562 14.8051C131.297 18.4257 130.47 20.6106 126.863 35.1513C123.989 46.7328 123.623 48.5698 123.623 51.4316C123.623 54.1378 123.769 54.9671 124.53 56.5814C126.56 60.8857 132.709 62.7232 140.245 61.2763C144.227 60.5117 147.069 59.0142 149.645 56.3227C153.376 52.4233 153.933 50.9548 158.392 33.2348C160.72 23.9844 161.015 22.4322 161.025 19.4019C161.036 16.4988 160.911 15.7472 160.193 14.3718C158.398 10.9319 155.736 9.18142 151.452 8.62308C150.029 8.43768 148.785 8.30223 148.687 8.32199C148.588 8.34211 147.46 8.48295 146.18 8.63565ZM55.3798 9.13902C50.5773 10.227 46.8865 13.1488 44.8163 17.5023C43.7618 19.7188 42.7185 22.9273 42.7085 23.9829C42.7052 24.3243 44.1149 24.4321 48.5762 24.4321H54.4485L54.8886 22.5458C55.4962 19.9409 56.2603 18.7556 57.6212 18.305C59.0273 17.839 60.1433 18.3165 60.4419 19.5115C60.5998 20.1428 59.3732 26.9543 59.0667 27.1487C59.0276 27.1735 56.498 28.0372 53.4456 29.0684C44.3444 32.1429 41.5942 34.0956 38.8226 39.4502C36.4122 44.1067 34.7902 51.8624 35.3591 56.013C35.8815 59.8262 38.0954 61.5993 42.3379 61.604C45.599 61.6076 47.3123 60.8365 50.172 58.0793C51.4327 56.8638 52.0217 56.4761 51.8899 56.9482C51.7796 57.3435 51.5863 58.1519 51.4603 58.7447C51.3339 59.3375 51.1545 60.1054 51.061 60.4514C50.9039 61.0323 51.3561 61.0801 57.0022 61.0801C60.3632 61.0801 63.113 61.0313 63.113 60.9713C63.113 60.9116 65.392 51.7359 68.1776 40.5813C73.8559 17.8426 74.055 16.5437 72.3195 13.5716C71.1458 11.5617 70.5042 11.012 67.937 9.81594C66.0454 8.93458 65.3229 8.80955 61.6808 8.73194C59.1594 8.67841 56.7168 8.83614 55.3798 9.13902ZM98.021 9.29244C97.2326 9.6521 95.742 10.8741 94.709 12.0084C93.6761 13.1423 92.8329 14.0168 92.8354 13.9518C92.8375 13.8864 93.0774 12.9436 93.3681 11.8567C93.6589 10.7699 93.8988 9.67869 93.9009 9.43149C93.9041 9.0898 92.4526 8.98237 87.8252 8.98237C81.8142 8.98237 81.743 8.99171 81.5583 9.79079C81.1107 11.7231 69.1572 59.8851 68.9821 60.46C68.8006 61.0557 69.1923 61.0909 74.9913 60.9989L81.1941 60.9005L86.2183 40.6334C90.5413 23.1936 91.3724 20.2236 92.1744 19.3452C93.3431 18.065 94.8347 17.9719 95.3678 19.1454C95.6629 19.7954 95.3707 21.447 93.9693 27.0499L92.1977 34.133H98.2054H104.213L106.614 24.4123C109.186 14.0006 109.264 13.1046 107.784 11.0185C106.17 8.74308 101.166 7.8585 98.021 9.29244ZM166.12 15.1802C165.053 25.6515 164.102 34.875 163.739 38.2649C163.549 40.0434 163.13 44.0855 162.809 47.2473C162.487 50.4091 162.028 54.8151 161.788 57.0381L161.352 61.0801L168.357 61.0798L175.361 61.079L176.669 57.2173C180.796 45.0333 186.107 29.8851 186.214 29.9925C186.282 30.0611 185.754 34.0522 185.041 38.8617C184.327 43.6716 183.345 50.3552 182.857 53.7146C182.369 57.074 181.907 60.109 181.83 60.4589C181.7 61.0532 182.151 61.0888 188.694 60.9978L195.698 60.9005L198.454 53.8942C199.97 50.0408 202.95 42.4417 205.076 37.0074C207.202 31.573 210.53 23.1239 212.471 18.231C214.412 13.3385 216 9.2522 216 9.15052C216 9.04884 213.246 9.00968 209.88 9.06357L203.761 9.16202L198.425 24.5801C195.49 33.0598 193.007 40.0793 192.908 40.1792C192.63 40.458 192.602 40.6478 195.182 24.4856C196.845 14.0668 197.485 9.2213 197.214 9.11675C196.995 9.03267 194.187 9.0086 190.972 9.06285L185.127 9.16202L180.033 24.2524C177.231 32.5521 174.832 39.5853 174.703 39.8817C174.244 40.9312 175.082 34.9475 177.888 17.1459C178.566 12.8419 179.121 9.2443 179.121 9.1516C179.121 9.05854 176.338 8.98237 172.936 8.98237H166.751L166.12 15.1802ZM23.0627 15.7019C22.8736 16.4525 22.2209 19.0423 21.6119 21.4567C21.0032 23.8716 20.5051 26.014 20.5051 26.2174C20.5051 26.4254 21.3419 26.5878 22.4121 26.5878C23.9596 26.5878 24.4702 26.4261 25.1225 25.7295C26.0026 24.7892 26.95 22.0136 27.6897 18.2076C28.3113 15.0081 28.0557 14.5859 25.4097 14.4444L23.4064 14.3369L23.0627 15.7019ZM145.272 18.4713C144.587 18.7688 143.888 19.5277 143.385 20.5204C142.354 22.5537 135.793 49.2953 136.059 50.3814C136.375 51.6749 136.874 52.0978 138.088 52.0978C139.46 52.0978 140.635 51.3235 141.341 49.9538C141.991 48.6924 148.687 21.8538 148.687 20.51C148.687 18.5863 147.137 17.6611 145.272 18.4713ZM55.363 35.0122C53.5549 35.8016 51.4395 37.9563 50.6679 39.7948C50.2744 40.7318 49.4946 43.4082 48.9346 45.7422C48.0008 49.6355 47.9611 50.0656 48.4548 50.952C49.505 52.8379 51.8706 52.3356 53.0726 49.9715C54.0626 48.0244 57.4082 34.4887 56.8951 34.5063C56.6717 34.5142 55.9824 34.7417 55.363 35.0122ZM18.2358 35.4804C18.0131 35.8476 14.4183 50.4177 14.4183 50.9523C14.4183 51.5523 17.0295 51.4949 18.5394 50.8618C19.2183 50.5772 20.0833 49.8331 20.4622 49.2076C21.2388 47.9263 23.3695 39.77 23.3695 38.0784C23.3695 36.3851 21.9921 35.2109 20.0053 35.2109C19.122 35.2109 18.3257 35.3323 18.2358 35.4804Z" fill="white"/>
<path d="M58.8414 63H213.3L203.152 99H48.6L58.8414 63Z" fill="#EFC700"/>
<path fill-rule="evenodd" clip-rule="evenodd" d="M152.324 67.3098C149.96 67.6795 147.302 68.2015 146.416 68.4692C144.841 68.9453 144.807 68.988 144.891 70.3479C144.939 71.1132 145.102 71.8642 145.255 72.0169C145.407 72.1696 147.044 71.977 148.892 71.5886C152.029 70.9296 155.367 70.6562 155.367 71.0586C155.367 71.4941 150.536 76.996 150.028 77.139C149.715 77.2266 148.492 77.4976 147.311 77.7404C144.662 78.2851 144.487 78.4285 145.208 79.4625C145.686 80.1466 145.992 80.249 146.995 80.0604C147.661 79.935 148.206 79.9077 148.206 79.9997C148.206 80.0917 147.313 81.467 146.223 83.0562C143.75 86.6589 142.741 88.8833 143.039 90.0758C143.407 91.5471 143.938 91.7508 145.879 91.1648C147.627 90.637 152.754 89.811 157.157 89.3478C158.437 89.2134 159.598 88.9264 159.737 88.7101C159.898 88.46 160.459 88.7729 161.279 89.5702C162.444 90.7034 162.763 90.8234 164.607 90.8234C166.154 90.8234 166.92 90.6266 167.787 90.0061C170.248 88.2448 172.308 81.1785 171.5 77.2716C170.93 74.5168 169.966 73.6779 167.288 73.6068C166.147 73.5762 164.996 73.4163 164.73 73.2514C164.015 72.8077 162.526 74.0613 161.245 76.1854C159.922 78.3786 158.769 82.9333 159.096 84.6777L159.326 85.9072L157.973 85.7304C156.636 85.5558 148.952 86.4268 147.752 86.8888C146.515 87.3652 147.09 86.2712 150.632 81.411C152.395 78.9919 152.451 78.9696 157.515 78.6947L159.126 78.6074L158.09 77.6194C157.382 76.9446 156.672 76.6313 155.852 76.6313C155.191 76.6313 154.651 76.4897 154.651 76.3166C154.651 76.1434 155.803 74.5668 157.211 72.8134C158.619 71.0597 159.928 69.4231 160.119 69.1763C160.348 68.881 160.315 68.3589 160.022 67.6493C159.625 66.6875 159.417 66.5746 158.098 66.6041C157.285 66.6224 154.687 66.94 152.324 67.3098ZM118.94 69.8945C118.747 70.1417 118.305 71.1043 117.959 72.0338C117.351 73.6653 117.262 73.7375 115.379 74.1299C113.211 74.5815 112.708 75.2229 113.679 76.2989C114.17 76.844 114.583 76.9615 115.386 76.7844C116.423 76.5558 116.44 76.5752 116.21 77.7325C115.919 79.1895 115.73 79.3971 115.188 78.8528C114.591 78.2542 114.302 78.3225 114.097 79.1097C113.856 80.036 112.29 81.0154 111.523 80.7204C110.73 80.4147 110.899 78.6351 111.971 76.0173C112.672 74.3041 112.689 74.0968 112.166 73.5726C111.823 73.2284 111.148 73.043 110.477 73.1088C109.4 73.2137 109.316 73.3466 108.27 76.6058C107.672 78.4691 106.965 80.0665 106.698 80.1556C106.346 80.2735 106.27 80.0827 106.421 79.4625C106.535 78.9922 106.737 77.624 106.869 76.4218L107.109 74.2362L105.995 73.7731C103.868 72.8892 103.728 73.2952 102.904 82.7167C102.283 89.8224 102.286 89.8372 104.833 90.1796L106.314 90.379L106.327 89.1642C106.351 86.8195 108.281 79.5057 108.876 79.5057C109.031 79.5057 109.294 80.0313 109.459 80.6734C110.032 82.8934 112.579 83.3936 114.237 81.6118L115.287 80.4847L115.072 83.8574C114.812 87.9394 115.346 89.3464 117.568 90.435C118.806 91.0415 119.209 91.0749 120.923 90.7142C121.994 90.4889 123.393 89.9037 124.034 89.4136L125.198 88.5225L126.02 89.4003C128.138 91.662 131.77 92.3533 133.915 90.9025C135.436 89.8738 136.02 88.7316 136.027 86.7699C136.037 83.8679 134.36 81.2967 131.351 79.6009C130.381 79.0544 129.635 78.4644 129.693 78.2894C129.751 78.1145 130.578 77.6643 131.531 77.2888C133.128 76.659 133.312 76.6511 133.902 77.1861C134.428 77.6643 134.687 77.6901 135.376 77.3323C137.451 76.254 137.979 75.0069 136.941 73.633C136.551 73.1163 136.178 73.024 135.252 73.2148C133.591 73.5568 128.589 75.128 127.781 75.562C127.243 75.8509 127.029 75.7618 126.696 75.109C125.971 73.688 124.86 73.0549 123.078 73.0463L121.402 73.0383L121.735 71.8732C121.918 71.2322 122.068 70.658 122.068 70.5973C122.068 70.483 119.699 69.4454 119.438 69.4454C119.358 69.4454 119.133 69.6477 118.94 69.8945ZM68.1759 71.9353C64.9742 72.7459 62.2727 73.9413 62.2791 74.5452C62.2938 75.9695 62.8176 76.6798 64.3555 77.3625C66.8729 78.4802 68.1998 79.6691 69.2192 81.7218C71.1992 85.7096 69.6947 89.5659 66.1586 89.5659C63.7958 89.5659 62.9304 87.9225 64.0074 85.4797C64.7969 83.6886 64.5449 83.0986 62.9902 83.0986C61.5799 83.0986 61.2 83.7435 61.2 86.1382C61.2 87.9944 61.3396 88.4668 62.1463 89.3399C63.4303 90.7293 65.3011 91.4544 67.5557 91.4364C74.0156 91.3847 75.7787 85.1462 70.8594 79.7449C69.9124 78.7051 68.4809 77.5385 67.6792 77.153C66.8772 76.7671 66.2191 76.2724 66.2166 76.0532C66.212 75.5937 70.448 74.1162 71.7699 74.1162C72.7639 74.1162 72.8155 74.2265 72.287 75.2178C71.7531 76.2185 72.4982 76.12 73.9666 74.9961C75.1983 74.0534 75.4417 73.1526 74.7933 71.9368C74.3142 71.0389 71.7198 71.0382 68.1759 71.9353ZM180.463 73.7889C180.093 74.3997 179.032 76.825 178.105 79.1783C175.721 85.231 175.133 84.8757 176.5 78.2086C176.898 76.2663 177.145 74.4698 177.048 74.2168C176.952 73.9639 176.408 73.7569 175.841 73.7569C174.994 73.7569 174.706 73.9966 174.22 75.1043C173.195 77.4429 172.553 81.5666 172.553 85.8167C172.553 89.4463 172.637 90.0089 173.269 90.6438C174.002 91.3793 174.944 91.5571 175.616 91.0875C175.824 90.9424 176.327 89.4491 176.735 87.7694C177.656 83.976 179.018 80.5095 179.672 80.295C180.056 80.1693 180.116 80.4064 179.94 81.3463C179.815 82.0135 179.612 83.9415 179.489 85.6302C179.279 88.5128 179.317 88.7615 180.116 89.6845C181.308 91.062 183.201 91.3121 185.062 90.3388L186.502 89.5853L186.897 90.3247C187.409 91.2855 189.926 92.4223 191.563 92.4324C192.271 92.4367 193.557 92.0648 194.423 91.6056C197.147 90.1602 199.077 85.1531 197.282 84.1891C196.282 83.6516 196.257 83.6699 195.761 85.3316C195.51 86.1735 194.656 87.5294 193.839 88.3856C192.664 89.6162 192.123 89.9241 191.144 89.9198C189.64 89.913 189.165 89.6291 188.734 88.4808C188.411 87.6218 188.744 83.6189 189.174 83.187C189.286 83.0749 189.673 83.2517 190.034 83.5797C191.595 84.9975 193.769 83.9735 194.88 81.2971C196.726 76.8519 195.354 72.6791 192.046 72.6791C188.831 72.6791 186.198 77.8691 185.504 85.5759C185.241 88.4859 184.607 89.3992 183.384 88.6285C182.296 87.943 182.392 84.5685 183.637 79.6864C185.053 74.1407 185.045 73.8999 183.43 73.2227C181.605 72.4577 181.226 72.5303 180.463 73.7889ZM93.2407 73.439C92.2611 73.9172 91.0341 75.7862 89.918 78.5014C88.6352 81.6223 88.6151 85.5217 89.8697 87.9667C91.2854 90.7257 94.1162 91.7303 96.8313 90.4376C100.82 88.538 103.049 77.5033 100.051 74.4942C99.2853 73.7257 98.7905 73.5723 96.9952 73.5457C95.8169 73.5281 94.7463 73.4066 94.616 73.2762C94.3199 72.9787 94.1394 72.9999 93.2407 73.439ZM76.8167 73.9574C76.6989 74.2653 76.3526 76.4883 76.0472 78.8977C75.7414 81.3068 75.1793 85.0568 74.798 87.2305C73.4517 94.9047 73.3296 95.7587 73.5101 96.2305C73.7245 96.7921 76.2789 97.5746 76.6537 97.1937C76.7959 97.0497 77.0841 95.246 77.2936 93.1862C77.6978 89.2185 77.8754 88.6623 78.4232 89.6446C78.6108 89.9809 79.2883 90.4016 79.9292 90.5791C84.0811 91.7296 87.5084 87.5251 87.9559 80.7316C88.2728 75.9206 87.0168 73.6782 83.9676 73.6118C82.6876 73.5841 82.1691 73.7727 81.3442 74.5654C80.1505 75.7129 79.6843 75.8254 79.9786 74.8948C80.3502 73.7199 77.2581 72.803 76.8167 73.9574ZM191.412 75.4406C191.128 75.9968 190.572 77.5364 190.178 78.8622C189.571 80.899 189.534 81.3722 189.937 81.9162C190.663 82.896 191.541 82.1325 192.322 79.8427C193.454 76.5181 192.709 72.9079 191.412 75.4406ZM82.6976 75.9795C81.9894 76.7423 80.5346 80.1571 80.5346 81.056C80.5346 81.3011 80.2124 81.7786 79.8185 82.117C79.2646 82.5927 79.1024 83.1769 79.1024 84.695C79.1024 87.3412 79.6538 88.488 80.9256 88.488C82.5408 88.488 83.6823 86.4145 84.6479 81.7279C85.2158 78.9707 85.3382 76.7197 84.9719 75.7625C84.6626 74.9538 83.5519 75.0597 82.6976 75.9795ZM96.2333 75.5631C95.6257 75.9188 93.4244 80.811 93.4244 81.8048C93.4244 82.1414 93.2203 82.2787 92.9024 82.1565C92.1977 81.8853 91.8569 83.3562 92.0814 85.7003C92.3753 88.7694 94.3618 89.6209 95.9633 87.3645C97.5366 85.1473 98.9624 77.5687 98.1073 75.9659C97.6612 75.1294 97.1582 75.0213 96.2333 75.5631ZM166.545 75.4356C165.928 75.6846 164.447 78.6739 163.94 80.6938C163.673 81.7581 163.371 82.2686 163.076 82.1547C162.544 81.9499 162.182 83.0785 162.175 84.9615C162.159 89.2167 165.167 89.996 166.852 86.1735C168.151 83.2262 169.018 77.3858 168.397 75.7625C168.183 75.2031 167.445 75.0727 166.545 75.4356ZM122.075 75.8768L120.47 76.0924L119.48 80.0446C118.826 82.6531 118.52 84.7298 118.578 86.1526L118.667 88.3084L119.937 88.4155C120.986 88.5042 121.437 88.298 122.536 87.2276C123.267 86.5151 124.184 85.3036 124.575 84.5347C125.4 82.9121 126.097 82.4282 127.283 82.656C128.703 82.9283 128.895 83.506 128.133 85.2141C127.751 86.07 127.439 87.0641 127.439 87.4238C127.439 89.2512 130.287 89.8555 131.715 88.331C132.349 87.653 132.534 87.0386 132.534 85.6097C132.534 83.2614 131.251 81.5055 128.597 80.2242C126.57 79.2459 125.765 78.006 126.152 76.4585C126.366 75.6051 126.302 75.5566 125.029 75.6073C124.287 75.6371 122.957 75.7582 122.075 75.8768Z" fill="white"/>
</svg>
