<svg width="16" height="16" viewBox="0 0 16 16" fill="none" xmlns="http://www.w3.org/2000/svg">
<path fill-rule="evenodd" clip-rule="evenodd" d="M0 0.0154805C0 0.0239654 1.35639 1.98881 3.01421 4.38175C4.672 6.77472 6.02149 8.75086 6.01308 8.77323C6.00464 8.79557 4.7365 10.4045 3.19495 12.3485C1.65343 14.2926 0.372769 15.9095 0.349114 15.9416C0.308863 15.9962 0.386227 16 1.53315 16H2.76025L4.96446 13.2144C6.17675 11.6824 7.17616 10.4278 7.18535 10.4266C7.19457 10.4253 8.06987 11.6783 9.13045 13.2111L11.0588 15.9979L13.5294 15.999C14.8883 15.9995 16 15.9928 16 15.984C16 15.9752 14.5819 13.8986 12.8487 11.3693L9.69735 6.77056L9.78541 6.66667C9.83385 6.60952 11.014 5.12121 12.408 3.35931C13.802 1.5974 14.9712 0.120797 15.0062 0.0779221L15.0698 0L13.8329 0.0022511L12.5961 0.00450214L10.5882 2.54622C9.48392 3.94417 8.57324 5.08862 8.56449 5.08942C8.55573 5.09025 7.76515 3.94601 6.80762 2.5467L5.06667 0.00249352L2.53333 0.00124673C1.13998 0.000554088 0 0.00696106 0 0.0154805ZM2.87686 1.56921C2.89067 1.59418 4.89136 4.48509 7.32286 7.99345L11.7438 14.3723H12.4157C12.8146 14.3723 13.0833 14.3593 13.0771 14.3402C13.0714 14.3226 11.0973 11.4323 8.6902 7.9174L4.31373 1.52665L3.58275 1.52523C2.9878 1.52409 2.85644 1.53226 2.87686 1.56921Z" fill="white"/>
</svg>
