<svg width="16" height="16" viewBox="0 0 16 16" fill="none" xmlns="http://www.w3.org/2000/svg">
<path fill-rule="evenodd" clip-rule="evenodd" d="M7.59621 0.00446298C7.57987 0.00662427 7.45963 0.0172883 7.32899 0.0281778C7.00706 0.0550039 6.56982 0.117812 6.33138 0.171476C6.0876 0.226351 6.042 0.237787 5.791 0.306996C5.6907 0.334653 5.27527 0.468629 5.23875 0.485088C5.22569 0.490978 5.14018 0.525107 5.04873 0.560911C4.77596 0.66774 4.38879 0.849787 4.15207 0.982516C4.11614 1.00266 4.07339 1.02582 4.05706 1.03398C4.04073 1.04214 3.97761 1.07962 3.9168 1.11726C3.85598 1.15491 3.80384 1.1857 3.80095 1.1857C3.7943 1.1857 3.44291 1.41951 3.35948 1.47946C2.66176 1.98073 2.09332 2.53636 1.58411 3.21483C1.47354 3.36214 1.18299 3.78847 1.18299 3.80338C1.18299 3.80631 1.15219 3.85844 1.11455 3.91925C1.0769 3.98005 1.03942 4.04317 1.03126 4.0595C1.0231 4.07582 0.999975 4.11858 0.97988 4.1545C0.845725 4.39436 0.664302 4.78006 0.55814 5.05107C0.522333 5.14251 0.4882 5.22801 0.48231 5.24108C0.465849 5.27759 0.33186 5.69298 0.3042 5.79327C0.234985 6.04424 0.223548 6.08985 0.168667 6.3336C0.118502 6.55641 0.0553556 6.9871 0.0232657 7.32517C-0.00775524 7.65217 -0.00775524 8.35195 0.0232657 8.67895C0.0553556 9.01702 0.118502 9.44771 0.168667 9.67052C0.223548 9.91427 0.234985 9.95988 0.3042 10.2108C0.33186 10.3111 0.465849 10.7265 0.48231 10.763C0.4882 10.7761 0.522333 10.8616 0.55814 10.953C0.664302 11.2241 0.845725 11.6098 0.97988 11.8496C0.999975 11.8855 1.0231 11.9283 1.03126 11.9446C1.03942 11.961 1.0769 12.0241 1.11455 12.0849C1.15219 12.1457 1.18299 12.1978 1.18299 12.2007C1.18299 12.2074 1.41682 12.5587 1.47677 12.6421C2.01322 13.3887 2.61287 13.9883 3.35948 14.5247C3.44291 14.5846 3.7943 14.8184 3.80095 14.8184C3.80384 14.8184 3.85598 14.8492 3.9168 14.8869C3.97761 14.9245 4.04073 14.962 4.05706 14.9701C4.07339 14.9783 4.11614 15.0014 4.15207 15.0215C4.39196 15.1557 4.77769 15.3371 5.04873 15.4432C5.14018 15.479 5.22569 15.5131 5.23875 15.519C5.27527 15.5355 5.6907 15.6695 5.791 15.6971C6.042 15.7663 6.0876 15.7778 6.33138 15.8326C6.55421 15.8828 6.98494 15.9459 7.32305 15.978C7.50089 15.9949 7.65801 16 8 16C8.34199 16 8.49911 15.9949 8.67695 15.978C9.01506 15.9459 9.44579 15.8828 9.66862 15.8326C9.9124 15.7778 9.958 15.7663 10.209 15.6971C10.3093 15.6695 10.7247 15.5355 10.7612 15.519C10.7743 15.5131 10.8598 15.479 10.9513 15.4432C11.2223 15.3371 11.608 15.1557 11.8479 15.0215C11.8839 15.0014 11.9266 14.9783 11.9429 14.9701C11.9593 14.962 12.0224 14.9245 12.0832 14.8869C12.144 14.8492 12.1962 14.8184 12.1991 14.8184C12.2057 14.8184 12.5571 14.5846 12.6405 14.5247C13.3382 14.0234 13.9067 13.4678 14.4159 12.7893C14.5265 12.642 14.817 12.2157 14.817 12.2007C14.817 12.1978 14.8478 12.1457 14.8855 12.0849C14.9231 12.0241 14.9606 11.961 14.9687 11.9446C14.9769 11.9283 15 11.8855 15.0201 11.8496C15.1543 11.6098 15.3357 11.2241 15.4419 10.953C15.4777 10.8616 15.5118 10.7761 15.5177 10.763C15.5342 10.7265 15.6681 10.3111 15.6958 10.2108C15.765 9.95988 15.7765 9.91427 15.8313 9.67052C15.8815 9.44771 15.9446 9.01702 15.9767 8.67895C16.0078 8.35195 16.0078 7.65217 15.9767 7.32517C15.9446 6.9871 15.8815 6.55641 15.8313 6.3336C15.7765 6.08985 15.765 6.04424 15.6958 5.79327C15.6681 5.69298 15.5342 5.27759 15.5177 5.24108C15.5118 5.22801 15.4777 5.14251 15.4419 5.05107C15.3357 4.78006 15.1543 4.39436 15.0201 4.1545C15 4.11858 14.9769 4.07582 14.9687 4.0595C14.9606 4.04317 14.9231 3.98005 14.8855 3.91925C14.8478 3.85844 14.817 3.80631 14.817 3.80338C14.817 3.78847 14.5265 3.36214 14.4159 3.21483C13.9067 2.53636 13.3382 1.98073 12.6405 1.47946C12.5571 1.41951 12.2057 1.1857 12.1991 1.1857C12.1962 1.1857 12.144 1.15491 12.0832 1.11726C12.0224 1.07962 11.9593 1.04214 11.9429 1.03398C11.9266 1.02582 11.8839 1.00266 11.8479 0.982516C11.6112 0.849787 11.224 0.66774 10.9513 0.560911C10.8598 0.525107 10.7743 0.490978 10.7612 0.485088C10.7247 0.468629 10.3093 0.334653 10.209 0.306996C9.958 0.237787 9.9124 0.226351 9.66862 0.171476C9.45537 0.123476 9.02313 0.0596232 8.68883 0.026729C8.50134 0.00827492 7.69223 -0.00820785 7.59621 0.00446298ZM7.54276 0.884272C7.49156 0.903653 7.39944 0.945263 7.37055 0.962067C7.36076 0.967767 7.33446 0.980782 7.31211 0.991007C7.19616 1.04404 6.94924 1.23581 6.78799 1.39809C6.59636 1.59092 6.3538 1.90743 6.21815 2.14165C6.20679 2.16125 6.16173 2.23841 6.11802 2.31313C6.0294 2.46459 5.86763 2.79143 5.79147 2.97292C5.76406 3.03823 5.73695 3.10055 5.73124 3.1114C5.72552 3.12227 5.70418 3.17571 5.6838 3.23016C5.66343 3.28462 5.64188 3.33986 5.63593 3.35292C5.60635 3.4178 5.47259 3.80878 5.45412 3.88434L5.44614 3.91699H6.52117H7.59621V2.39103C7.59621 1.55175 7.59487 0.865343 7.59324 0.865688C7.5916 0.86602 7.56889 0.87438 7.54276 0.884272ZM8.4038 2.39113V3.91699H9.4786C10.0697 3.91699 10.5534 3.91498 10.5534 3.91252C10.5534 3.88853 10.3964 3.42487 10.364 3.35292C10.3581 3.33986 10.3366 3.28462 10.3162 3.23016C10.2958 3.17571 10.2745 3.12227 10.2688 3.1114C10.263 3.10055 10.2359 3.03823 10.2085 2.97292C10.1324 2.79143 9.9706 2.46459 9.88198 2.31313C9.83827 2.23841 9.79321 2.16125 9.78185 2.14165C9.65448 1.92172 9.41338 1.60384 9.22958 1.41347C9.08438 1.26308 8.80257 1.04309 8.68883 0.991339C8.66597 0.980936 8.63924 0.967767 8.62945 0.962067C8.59829 0.943945 8.5065 0.902916 8.45427 0.883774L8.4038 0.86526V2.39113ZM5.71975 1.1728C5.44679 1.2669 5.20182 1.36296 5.03686 1.44058C4.91885 1.49611 4.58644 1.66193 4.52346 1.69669C4.25549 1.84458 3.9515 2.04155 3.70671 2.22587C3.52529 2.36247 3.37722 2.47776 3.36912 2.48873C3.36537 2.49381 3.29816 2.55378 3.21978 2.622C3.1414 2.69024 3.02451 2.79709 2.96002 2.85948C2.84147 2.97419 2.5158 3.33227 2.41789 3.45556C2.27679 3.63326 2.07371 3.90293 2.07371 3.91262C2.07371 3.91502 2.64258 3.91699 3.33785 3.91699H4.60201L4.62843 3.8309C4.68179 3.65702 4.85245 3.14828 4.88835 3.05604C4.9087 3.00379 4.94062 2.92096 4.95932 2.87198C4.978 2.82299 5.00126 2.76688 5.01103 2.74729C5.02078 2.72769 5.05017 2.6609 5.07635 2.59885C5.15117 2.42148 5.29981 2.12243 5.39796 1.95178C5.59171 1.61494 5.73022 1.40762 5.9253 1.16246C5.95671 1.12299 5.97542 1.09121 5.96687 1.09184C5.95833 1.09246 5.84712 1.1289 5.71975 1.1728ZM10.0747 1.1628C10.2055 1.32795 10.3453 1.52641 10.4463 1.6904C10.4744 1.73612 10.5074 1.788 10.5195 1.8057C10.5316 1.8234 10.5415 1.84032 10.5415 1.84331C10.5415 1.84631 10.5647 1.88793 10.593 1.93582C10.6823 2.08679 10.847 2.41715 10.9237 2.59885C10.9498 2.6609 10.9792 2.72769 10.989 2.74729C10.9987 2.76688 11.022 2.82299 11.0407 2.87198C11.0594 2.92096 11.0913 3.00379 11.1116 3.05604C11.1475 3.14828 11.3182 3.65702 11.3716 3.8309L11.398 3.91699H12.6621C13.3574 3.91699 13.9263 3.91502 13.9263 3.91262C13.9263 3.90306 13.7294 3.64144 13.5823 3.45556C13.4868 3.33486 13.1597 2.97535 13.0399 2.85948C12.9755 2.79709 12.8586 2.69024 12.7802 2.622C12.7018 2.55378 12.6346 2.49381 12.6309 2.48873C12.6099 2.46035 12.193 2.14807 12.0142 2.02683C11.6069 1.75064 11.1096 1.4888 10.6484 1.30765C10.4777 1.24061 10.0472 1.0907 10.0253 1.0907C10.0211 1.0907 10.0433 1.12314 10.0747 1.1628ZM1.50813 4.88779C1.42726 5.05778 1.32556 5.28946 1.32543 5.30396C1.32539 5.30856 1.31698 5.32836 1.30673 5.34795C1.25473 5.44737 1.08094 5.98486 1.01873 6.23859C1.00591 6.29084 0.98874 6.36031 0.980569 6.39297C0.972386 6.42563 0.959132 6.48708 0.951104 6.52954C0.943087 6.57199 0.928242 6.64948 0.918111 6.70173C0.886128 6.86686 0.852566 7.11046 0.833053 7.31924C0.822661 7.43027 0.811984 7.53848 0.8093 7.55971L0.804443 7.5983H2.44263H4.08081L4.08115 7.39939C4.08134 7.29 4.08932 7.1043 4.09888 6.98673C4.10845 6.86917 4.11913 6.72488 4.12261 6.6661C4.13161 6.51413 4.17308 6.12437 4.20031 5.93578C4.21304 5.8476 4.22344 5.76023 4.2234 5.74161C4.22336 5.723 4.23416 5.64551 4.2474 5.56941C4.26064 5.49333 4.28219 5.36695 4.29529 5.28858C4.30839 5.2102 4.32949 5.09264 4.34218 5.02732C4.35486 4.96201 4.37094 4.87928 4.37789 4.84346C4.38485 4.80766 4.39358 4.76624 4.39729 4.75143L4.40405 4.72451H2.99492H1.5858L1.50813 4.88779ZM5.19896 4.85218C5.07885 5.40139 4.95586 6.22522 4.93081 6.64829C4.92752 6.7038 4.91695 6.84542 4.90732 6.96298C4.8977 7.08055 4.88786 7.27158 4.88546 7.38752L4.8811 7.5983H6.23866H7.59621V6.16141V4.72451L6.41154 4.72452H5.22688L5.19896 4.85218ZM8.4038 6.16141V7.5983H9.76134H11.1189L11.1145 7.38752C11.1121 7.27158 11.1023 7.08055 11.0927 6.96298C11.083 6.84542 11.0725 6.7038 11.0692 6.64829C11.0441 6.22522 10.9211 5.40139 10.801 4.85218L10.7731 4.72452H9.58846L8.4038 4.72451V6.16141ZM11.6027 4.75138C11.6064 4.76622 11.6152 4.80766 11.6221 4.84346C11.6291 4.87928 11.6451 4.96201 11.6578 5.02732C11.6705 5.09264 11.6916 5.2102 11.7047 5.28858C11.7178 5.36695 11.7394 5.49333 11.7526 5.56941C11.7658 5.64551 11.7766 5.723 11.7766 5.74161C11.7766 5.76023 11.787 5.8476 11.7997 5.93578C11.8269 6.12437 11.8684 6.51413 11.8774 6.6661C11.8809 6.72488 11.8916 6.86917 11.9011 6.98673C11.9107 7.1043 11.9187 7.29 11.9189 7.39939L11.9192 7.5983H13.5574H15.1956L15.1907 7.55971C15.188 7.53848 15.1773 7.43027 15.1669 7.31924C15.1474 7.11046 15.1139 6.86686 15.0819 6.70173C15.0718 6.64948 15.0569 6.57199 15.0489 6.52954C15.0409 6.48708 15.0276 6.42563 15.0194 6.39297C15.0113 6.36031 14.9941 6.29084 14.9813 6.23859C14.9239 6.00476 14.7315 5.40468 14.6994 5.35983C14.6948 5.3533 14.6711 5.29719 14.6468 5.23514C14.6225 5.17309 14.561 5.03415 14.5101 4.92639L14.4176 4.73044L13.0067 4.72743L11.5959 4.72441L11.6027 4.75138ZM0.809193 8.44441C0.811806 8.46564 0.822412 8.57118 0.832756 8.67895C0.862958 8.99341 0.91209 9.3103 0.965343 9.53396C0.97545 9.57641 0.987754 9.63252 0.992671 9.65865C1.03121 9.86313 1.20933 10.4287 1.30681 10.6562C1.31521 10.6758 1.33908 10.7345 1.35985 10.7868C1.38063 10.839 1.43921 10.97 1.49004 11.0777L1.58245 11.2737L2.99326 11.2767L4.40407 11.2797L4.3973 11.2527C4.39358 11.2379 4.38485 11.1965 4.37789 11.1607C4.37094 11.1248 4.35486 11.0421 4.34218 10.9768C4.24965 10.5005 4.14414 9.71478 4.1229 9.34396C4.11935 9.28191 4.10858 9.13495 4.09896 9.01739C4.08935 8.89982 4.08134 8.71412 4.08115 8.60473L4.08081 8.40582H2.44263H0.804443L0.809193 8.44441ZM4.88546 8.6166C4.88786 8.73254 4.8977 8.92357 4.90732 9.04114C4.91695 9.1587 4.92752 9.30031 4.93081 9.35583C4.95586 9.7789 5.07885 10.6027 5.19896 11.1519L5.22688 11.2796H6.41154L7.59621 11.2796V9.84271V8.40582H6.23866H4.8811L4.88546 8.6166ZM8.4038 9.84271V11.2796L9.58846 11.2796H10.7731L10.801 11.1519C10.9211 10.6027 11.0441 9.7789 11.0692 9.35583C11.0725 9.30031 11.083 9.1587 11.0927 9.04114C11.1023 8.92357 11.1121 8.73254 11.1145 8.6166L11.1189 8.40582H9.76134H8.4038V9.84271ZM11.9189 8.60473C11.9187 8.71412 11.9107 8.89982 11.9011 9.01739C11.8916 9.13495 11.8809 9.27924 11.8774 9.33802C11.8684 9.48999 11.8269 9.87975 11.7997 10.0683C11.787 10.1565 11.7766 10.2439 11.7766 10.2625C11.7766 10.2811 11.7658 10.3586 11.7526 10.4347C11.7394 10.5108 11.7178 10.6372 11.7047 10.7155C11.6916 10.7939 11.6705 10.9115 11.6578 10.9768C11.6451 11.0421 11.6291 11.1248 11.6221 11.1607C11.6152 11.1965 11.6064 11.2379 11.6027 11.2527L11.5959 11.2797L13.0067 11.2767L14.4176 11.2737L14.51 11.0777C14.5608 10.97 14.6194 10.839 14.6401 10.7868C14.6609 10.7345 14.6848 10.6758 14.6932 10.6562C14.7907 10.4287 14.9688 9.86313 15.0073 9.65865C15.0122 9.63252 15.0246 9.57641 15.0347 9.53396C15.0879 9.3103 15.137 8.99341 15.1672 8.67895C15.1776 8.57118 15.1882 8.46564 15.1908 8.44441L15.1956 8.40582H13.5574H11.9192L11.9189 8.60473ZM2.07371 12.0915C2.07371 12.1012 2.27679 12.3709 2.41789 12.5486C2.5158 12.6718 2.84147 13.0299 2.96002 13.1446C3.02451 13.207 3.1414 13.3139 3.21978 13.3821C3.29816 13.4503 3.36537 13.5103 3.36912 13.5154C3.37286 13.5205 3.42096 13.5596 3.47601 13.6022C3.85896 13.8994 4.0946 14.0604 4.43116 14.2549C4.52528 14.3093 4.5464 14.3205 4.73137 14.4135C5.01483 14.5561 5.1441 14.6151 5.35158 14.6965C5.52238 14.7636 5.95288 14.9134 5.97467 14.9134C5.97892 14.9134 5.95671 14.8811 5.9253 14.8417C5.75498 14.6276 5.62117 14.4318 5.4644 14.1672C5.32714 13.9356 5.1694 13.6259 5.07635 13.4053C5.05017 13.3432 5.02078 13.2764 5.01103 13.2568C5.00126 13.2372 4.978 13.1811 4.95932 13.1321C4.94062 13.0832 4.9087 13.0003 4.88835 12.9481C4.85245 12.8558 4.68179 12.3471 4.62843 12.1732L4.60201 12.0871H3.33785C2.64258 12.0871 2.07371 12.0891 2.07371 12.0915ZM5.45412 12.1198C5.47259 12.1953 5.60635 12.5863 5.63593 12.6512C5.64188 12.6643 5.66343 12.7195 5.6838 12.774C5.70418 12.8284 5.72552 12.8818 5.73124 12.8927C5.73695 12.9036 5.76406 12.9659 5.79147 13.0312C5.86763 13.2127 6.0294 13.5395 6.11802 13.691C6.16173 13.7657 6.20679 13.8429 6.21815 13.8625C6.3538 14.0967 6.59636 14.4132 6.78799 14.606C6.94924 14.7683 7.19616 14.9601 7.31211 15.0131C7.33446 15.0233 7.36076 15.0364 7.37055 15.0421C7.40171 15.0602 7.4935 15.1012 7.54573 15.1203L7.59621 15.1389V13.613V12.0871H6.52117H5.44614L5.45412 12.1198ZM8.4038 13.613V15.1389L8.45427 15.1203C8.5065 15.1012 8.59829 15.0602 8.62945 15.0421C8.63924 15.0364 8.66597 15.0232 8.68883 15.0128C8.80257 14.961 9.08438 14.741 9.22958 14.5907C9.41338 14.4003 9.65448 14.0824 9.78185 13.8625C9.79321 13.8429 9.83827 13.7657 9.88198 13.691C9.9706 13.5395 10.1324 13.2127 10.2085 13.0312C10.2359 12.9659 10.263 12.9036 10.2688 12.8927C10.2745 12.8818 10.2958 12.8284 10.3162 12.774C10.3366 12.7195 10.3581 12.6643 10.3641 12.6512C10.3937 12.5863 10.5274 12.1953 10.5459 12.1198L10.5539 12.0871H9.47883H8.4038V13.613ZM11.3716 12.1732C11.3182 12.3471 11.1475 12.8558 11.1116 12.9481C11.0913 13.0003 11.0594 13.0832 11.0407 13.1321C11.022 13.1811 10.9987 13.2372 10.989 13.2568C10.9792 13.2764 10.9498 13.3432 10.9237 13.4053C10.847 13.587 10.6823 13.9173 10.593 14.0683C10.5647 14.1162 10.5415 14.1578 10.5415 14.1608C10.5415 14.1638 10.5316 14.1807 10.5195 14.1984C10.5074 14.2161 10.4744 14.268 10.4463 14.3137C10.3453 14.4777 10.2055 14.6762 10.0747 14.8413C10.0433 14.881 10.0211 14.9134 10.0253 14.9134C10.0472 14.9134 10.4777 14.7635 10.6484 14.6965C10.8794 14.6058 11.26 14.427 11.4765 14.3074C11.7445 14.1595 12.0485 13.9626 12.2933 13.7782C12.4747 13.6416 12.6228 13.5264 12.6309 13.5154C12.6346 13.5103 12.7018 13.4503 12.7802 13.3821C12.8586 13.3139 12.9755 13.207 13.04 13.1446C13.1585 13.0299 13.4842 12.6718 13.5821 12.5486C13.7232 12.3709 13.9263 12.1012 13.9263 12.0915C13.9263 12.0891 13.3574 12.0871 12.6621 12.0871H11.398L11.3716 12.1732Z" fill="white"/>
</svg>
